<?xml version="1.0" encoding="UTF-8" standalone="no"?>
<svg
   xmlns:dc="http://purl.org/dc/elements/1.1/"
   xmlns:cc="http://creativecommons.org/ns#"
   xmlns:rdf="http://www.w3.org/1999/02/22-rdf-syntax-ns#"
   xmlns:svg="http://www.w3.org/2000/svg"
   xmlns="http://www.w3.org/2000/svg"
   xmlns:sodipodi="http://sodipodi.sourceforge.net/DTD/sodipodi-0.dtd"
   xmlns:inkscape="http://www.inkscape.org/namespaces/inkscape"
   sodipodi:docname="club.svg"
   inkscape:version="1.0 (4035a4fb49, 2020-05-01)"
   id="svg8"
   version="1.1"
   viewBox="0 0 50 50"
   height="50mm"
   width="50mm">
  <defs
     id="defs2" />
  <sodipodi:namedview
     inkscape:window-maximized="1"
     inkscape:window-y="-8"
     inkscape:window-x="1432"
     inkscape:window-height="1017"
     inkscape:window-width="1920"
     showgrid="false"
     inkscape:document-rotation="0"
     inkscape:current-layer="g942"
     inkscape:document-units="mm"
     inkscape:cy="118.70694"
     inkscape:cx="197.70247"
     inkscape:zoom="2.8"
     inkscape:pageshadow="2"
     inkscape:pageopacity="0.0"
     borderopacity="1.0"
     bordercolor="#666666"
     pagecolor="#ffffff"
     id="base" />
  <metadata
     id="metadata5">
    <rdf:RDF>
      <cc:Work
         rdf:about="">
        <dc:format>image/svg+xml</dc:format>
        <dc:type
           rdf:resource="http://purl.org/dc/dcmitype/StillImage" />
        <dc:title></dc:title>
      </cc:Work>
    </rdf:RDF>
  </metadata>
  <g
     id="layer1"
     inkscape:groupmode="layer"
     inkscape:label="Layer 1">
    <g
       transform="translate(-14.079613,-12.756696)"
       id="g942">
      <path
         transform="matrix(0.26458333,0,0,0.26458333,14.079613,12.756696)"
         d="M 93.572266 0 A 49.133858 49.133858 0 0 0 44.4375 49.134766 A 49.133858 49.133858 0 0 0 45.816406 60.695312 A 49.133858 49.133858 0 0 0 0 109.7168 A 49.133858 49.133858 0 0 0 49.134766 158.84961 A 49.133858 49.133858 0 0 0 80.183594 147.79688 L 71.880859 188.60156 L 117.4043 188.60156 L 109.16211 148.09375 A 49.133858 49.133858 0 0 0 139.8418 158.84961 A 49.133858 49.133858 0 0 0 188.97656 109.7168 A 49.133858 49.133858 0 0 0 141.3457 60.607422 A 49.133858 49.133858 0 0 0 142.70508 49.134766 A 49.133858 49.133858 0 0 0 93.572266 0 z "
         inkscape:transform-center-y="-4.9335274"
         style="fill:#000000;fill-opacity:1;fill-rule:evenodd;stroke-width:0.95386"
         id="path953" />
    </g>
  </g>
</svg>
